<svg xmlns="http://www.w3.org/2000/svg" viewBox="0 0 47.6 44.68"><defs><style>.cls-1{fill:#d31c5a}.cls-2{fill:#fff}.cls-3{fill:none;stroke:#8e8e8e;stroke-miterlimit:10}.cls-4{fill:#8e8e8e}</style></defs><title>coracao</title><g id="Layer_2" data-name="Layer 2"><g id="Layer_1-2" data-name="Layer 1"><path class="cls-1" d="M33.27 6a8.15 8.15 0 0 0-7 4.06 3 3 0 0 1-2.57 1.46A3 3 0 0 1 21.09 10a7.74 7.74 0 0 0-6.77-4C10 6 6.52 9.7 6.06 14.8v.22a9.46 9.46 0 0 0 .31 3.2 15.78 15.78 0 0 0 4.83 8.08l12.5 11.34 12.72-11.35a15.8 15.8 0 0 0 4.84-8.07 9.35 9.35 0 0 0 .3-3.22v-.2C41.08 9.7 37.6 6 33.27 6z"/><path class="cls-2" d="M14.49 9a5.6 5.6 0 0 0-5.59 5.56 1 1 0 1 0 2 0A3.58 3.58 0 0 1 14.49 11a1 1 0 0 0 0-2z"/><path class="cls-4" d="M23.68 44.68a3 3 0 0 1-2-.78L7.17 30.74A21.74 21.74 0 0 1 .5 19.6a15.1 15.1 0 0 1-.41-5.44C.88 6 6.85 0 14.33 0a13.56 13.56 0 0 1 9.39 3.77A14.16 14.16 0 0 1 33.27 0c7.48 0 13.45 6 14.24 14.17a15.06 15.06 0 0 1-.41 5.43 21.8 21.8 0 0 1-6.67 11.15L25.67 43.91a3 3 0 0 1-1.99.77zM14.33 6C10 6 6.52 9.7 6.06 14.8v.22a9.46 9.46 0 0 0 .31 3.2 15.78 15.78 0 0 0 4.83 8.08l12.5 11.34 12.72-11.35a15.8 15.8 0 0 0 4.84-8.07 9.35 9.35 0 0 0 .3-3.22v-.2C41.08 9.7 37.6 6 33.27 6a8.15 8.15 0 0 0-7 4.06 3 3 0 0 1-2.57 1.46A3 3 0 0 1 21.09 10a7.74 7.74 0 0 0-6.76-4z"/></g></g></svg>